<svg xmlns="http://www.w3.org/2000/svg" width="124.458" height="56" viewBox="0 0 124.458 56">
  <g id="logo" transform="translate(550.458 128)">
    <path id="Subtraction_1" data-name="Subtraction 1" d="M27.958,55.917A27.966,27.966,0,0,1,17.076,2.2,27.977,27.977,0,0,1,53.67,16.959H38.958v27h11.93a28.2,28.2,0,0,1-9.8,8.69,27.834,27.834,0,0,1-13.128,3.268ZM20.334,35.583a2.542,2.542,0,0,0,0,5.083h5.083v2.542a2.542,2.542,0,0,0,5.083,0V40.667a7.625,7.625,0,1,0,0-15.25H25.417a2.542,2.542,0,1,1,0-5.083H35.583a2.542,2.542,0,0,0,0-5.084H30.5V12.708a2.542,2.542,0,0,0-5.083,0V15.25a7.625,7.625,0,0,0,0,15.25H30.5a2.542,2.542,0,1,1,0,5.083Z" transform="translate(-550.458 -128)" fill="#58c7f3"/>
    <text id="mart" transform="translate(-509 -87)" fill="#58c7f3" font-size="43" font-family="FirstJob, First Job"><tspan x="0" y="0">mart</tspan></text>
    <text id="FinTrack" transform="translate(-500 -75)" fill="#f3cc30" font-size="16" font-family="Modern-Regular, 'Modern No\. \32 0'" letter-spacing="0.06em"><tspan x="0" y="0">FinTrack</tspan></text>
  </g>
</svg>
